<svg width="250" height="250" viewBox="0 0 250 250" fill="none" xmlns="http://www.w3.org/2000/svg">
<circle cx="125" cy="125" r="125" fill="url(#paint0_linear_4_3)"/>
<path d="M147.761 72.4057V85.9492H130.036V72.4057C130.036 68.2348 128.968 64.3099 127.085 60.887C129.035 59.6794 131.261 58.9852 133.557 58.8732C136.006 58.7536 138.443 59.3015 140.605 60.4584C142.768 61.6152 144.576 63.3377 145.836 65.4419C147.096 67.546 147.761 69.9529 147.761 72.4055V72.4057ZM120.174 53.0598C116.685 50.5275 112.575 48.9841 108.277 48.5966C103.856 48.1979 99.4102 49.0384 95.4393 51.0238C91.4685 53.0092 88.1289 56.0612 85.7949 59.8377C83.4608 63.6143 82.2246 67.9662 82.2246 72.4057V85.9492H73.3623C70.7466 85.9492 68.2381 86.9882 66.3886 88.8378C64.5391 90.6873 63.5 93.1958 63.5 95.8114V170.71C63.5 178.291 66.5118 185.563 71.8729 190.924C77.234 196.285 84.5052 199.297 92.0869 199.297H152.942C159.282 199.297 165.362 196.778 169.846 192.295C174.329 187.812 176.847 181.731 176.847 175.391V95.8114C176.847 93.1958 175.808 90.6873 173.959 88.8378C172.109 86.9882 169.601 85.9492 166.985 85.9492H158.123V72.4057C158.123 67.9662 156.887 63.6143 154.553 59.8377C152.219 56.0612 148.879 53.0092 144.908 51.0238C140.937 49.0384 136.492 48.1979 132.07 48.5966C127.772 48.9841 123.662 50.5275 120.174 53.0598ZM92.5869 72.4057C92.5869 68.8138 94.0138 65.369 96.5536 62.8291C99.0935 60.2892 102.538 58.8623 106.13 58.8623C109.722 58.8623 113.167 60.2892 115.707 62.8291C118.247 65.369 119.674 68.8138 119.674 72.4057V85.9492H92.5869V72.4057ZM92.0869 188.934C87.2534 188.934 82.6179 187.014 79.2001 183.596C75.7824 180.179 73.8623 175.543 73.8623 170.71V96.3114H129.036V175.391C129.036 180.42 130.589 185.083 133.241 188.934H92.0869ZM166.485 175.391C166.485 178.983 165.058 182.428 162.518 184.968C159.978 187.507 156.534 188.934 152.942 188.934C149.35 188.934 145.905 187.507 143.365 184.968C140.825 182.428 139.398 178.983 139.398 175.391V96.3114H166.485V175.391Z" fill="white" stroke="white"/>
<defs>
<linearGradient id="paint0_linear_4_3" x1="46" y1="22" x2="197" y2="227" gradientUnits="userSpaceOnUse">
<stop stop-color="#FFD465"/>
<stop offset="1" stop-color="#C74800"/>
</linearGradient>
</defs>
</svg>
